<?xml version="1.0" standalone="no"?>
<!DOCTYPE svg PUBLIC "-//W3C//DTD SVG 20010904//EN"
 "http://www.w3.org/TR/2001/REC-SVG-20010904/DTD/svg10.dtd">
<svg version="1.0" xmlns="http://www.w3.org/2000/svg"
 width="260.000000pt" height="260.000000pt" viewBox="0 0 260.000000 260.000000"
 preserveAspectRatio="xMidYMid meet">
<metadata>
Created by potrace 1.11, written by Peter Selinger 2001-2013
</metadata>
<g transform="translate(0.000000,260.000000) scale(0.100000,-0.100000)"
fill="#000000" stroke="none">
<path d="M539 1753 c-152 -3 -157 -4 -163 -26 -10 -38 -7 -47 19 -47 42 0 85
-29 101 -66 8 -19 66 -206 129 -416 63 -210 117 -383 119 -386 3 -2 24 2 47
10 l42 14 100 285 c55 156 102 286 104 289 9 10 23 -32 104 -310 80 -277 85
-290 106 -285 69 17 61 1 224 421 85 218 162 408 172 421 10 13 29 23 43 23
13 0 24 6 24 13 0 6 3 22 6 34 6 22 6 22 -167 25 -108 2 -177 -1 -181 -7 -4
-5 -8 -20 -8 -32 0 -21 4 -23 63 -23 67 0 107 -18 107 -49 0 -42 -229 -676
-240 -664 -8 9 -119 402 -158 559 -14 56 -22 109 -19 118 7 19 37 32 90 41 33
5 37 9 37 37 l0 31 -52 -7 c-29 -3 -115 -6 -190 -6 l-138 0 0 -34 c0 -31 3
-34 39 -40 48 -7 83 -45 101 -110 l13 -46 -98 -268 c-54 -147 -101 -271 -106
-276 -4 -4 -10 0 -13 10 -28 94 -123 443 -146 537 -21 85 -27 125 -20 137 6
12 31 23 65 30 52 11 55 13 55 41 0 26 -3 29 -27 27 -16 -1 -98 -4 -184 -5z"/>
<path d="M1819 1463 c-14 -38 -2 -82 28 -96 22 -10 28 -8 45 13 33 41 9 110
-38 110 -17 0 -28 -8 -35 -27z"/>
<path d="M1952 1478 c-19 -19 -14 -72 8 -96 25 -27 36 -28 50 -3 32 62 -15
142 -58 99z"/>
<path d="M2052 1408 c-18 -18 -14 -53 7 -72 15 -14 24 -15 40 -6 26 13 27 51
3 73 -22 20 -34 21 -50 5z"/>
<path d="M1738 1355 c-14 -31 -2 -72 28 -91 50 -33 81 60 33 98 -29 25 -47 22
-61 -7z"/>
<path d="M1877 1333 c-18 -21 -47 -117 -47 -157 0 -46 45 -62 97 -34 21 11 62
24 91 28 65 10 82 23 82 65 0 28 -7 37 -57 70 -71 47 -138 58 -166 28z"/>
<path d="M2261 1164 c-23 -29 -24 -34 -15 -58 13 -35 104 -4 104 35 0 50 -56
65 -89 23z"/>
<path d="M2126 1154 c-26 -39 -18 -68 21 -72 42 -4 72 35 55 73 -16 34 -54 33
-76 -1z"/>
<path d="M2362 1098 c-7 -7 -12 -26 -12 -43 0 -55 45 -75 74 -33 20 29 20 52
0 72 -18 19 -45 21 -62 4z"/>
<path d="M2162 1050 c-68 -33 -78 -46 -68 -86 5 -18 20 -31 54 -46 26 -11 64
-38 84 -60 32 -34 42 -39 65 -34 44 11 52 30 49 118 -3 69 -7 83 -28 104 -38
38 -83 39 -156 4z"/>
<path d="M2379 946 c-6 -13 -9 -36 -5 -51 9 -37 56 -32 70 8 19 54 -42 95 -65
43z"/>
</g>
</svg>
